<svg xmlns="http://www.w3.org/2000/svg" viewBox="0 0 3459.78 488.4"><defs><style>.cls-1{fill:#fff;}</style></defs><g id="Layer_2" data-name="Layer 2"><g id="svg70"><g id="Podcast_icon_final-3" data-name="Podcast icon final-3"><g id="_logo_Podcasts_192px-8" data-name=" logo Podcasts 192px-8"><polygon id="Shape-8" class="cls-1" points="213.74 333 274.81 333 274.81 258.99 274.81 229.41 274.81 155.4 213.74 155.4 213.74 229.41 213.74 258.99 213.74 333"/><ellipse id="Oval-0" class="cls-1" cx="30.53" cy="227.55" rx="30.53" ry="30.53"/><ellipse id="ellipse9-9" class="cls-1" cx="30.53" cy="260.85" rx="30.53" ry="30.53"/><rect id="Rectangle-path-8" class="cls-1" y="227.55" width="61.07" height="33.3"/><ellipse id="ellipse12-0" class="cls-1" cx="458.02" cy="260.85" rx="30.53" ry="30.53"/><ellipse id="ellipse14-0" class="cls-1" cx="458.02" cy="227.55" rx="30.53" ry="30.53"/><rect id="rect16-5" class="cls-1" x="427.49" y="227.55" width="61.07" height="33.3"/><ellipse id="ellipse18-2" class="cls-1" cx="136.02" cy="327.45" rx="30.53" ry="30.53"/><ellipse id="ellipse20-8" class="cls-1" cx="136.02" cy="360.75" rx="30.53" ry="30.53"/><rect id="rect22-6" class="cls-1" x="105.48" y="327.45" width="61.07" height="33.3"/><ellipse id="ellipse24-4" class="cls-1" cx="136.02" cy="127.65" rx="30.53" ry="30.53"/><ellipse id="ellipse26-3" class="cls-1" cx="136.02" cy="235.88" rx="30.53" ry="30.53"/><rect id="rect28-2" class="cls-1" x="105.48" y="127.65" width="61.07" height="108.92"/><ellipse id="ellipse30-7" class="cls-1" cx="352.54" cy="160.95" rx="30.53" ry="30.53"/><ellipse id="ellipse32-9" class="cls-1" cx="352.54" cy="127.65" rx="30.53" ry="30.53"/><rect id="rect34-0" class="cls-1" x="322" y="127.65" width="61.07" height="33.3"/><ellipse id="ellipse36-4" class="cls-1" cx="244.28" cy="63.83" rx="30.53" ry="30.53"/><ellipse id="ellipse38-1" class="cls-1" cx="244.28" cy="30.53" rx="30.53" ry="30.53"/><rect id="rect40-9" class="cls-1" x="213.74" y="30.53" width="61.07" height="33.3"/><ellipse id="ellipse42-1" class="cls-1" cx="244.28" cy="457.88" rx="30.53" ry="30.53"/><ellipse id="ellipse44-5" class="cls-1" cx="244.28" cy="424.58" rx="30.53" ry="30.53"/><rect id="rect46-3" class="cls-1" x="213.74" y="424.58" width="61.07" height="33.3"/><ellipse id="ellipse48-2" class="cls-1" cx="352.54" cy="360.75" rx="30.53" ry="30.53"/><ellipse id="ellipse50-8" class="cls-1" cx="352.54" cy="252.53" rx="30.53" ry="30.53"/><rect id="rect52-3" class="cls-1" x="322" y="252.53" width="61.07" height="108.23"/><ellipse id="ellipse54-7" class="cls-1" cx="244.28" cy="155.4" rx="30.53" ry="30.53"/><ellipse id="ellipse56-5" class="cls-1" cx="244.28" cy="333" rx="30.53" ry="30.53"/></g></g><path id="Podcasts-1" class="cls-1" d="M1964.6,358h-37.35V82.46h99.06q36.95,0,63.94,23.28t27,58.68q0,35.4-27,58.67t-63.94,23.28H1964.6Zm0-145.44h62.52q23.55,0,37.75-15t14.21-33.09q0-18.09-14.21-33.09t-37.75-15H1964.6Zm183.61-20.39q28.83-28.86,73.48-28.86t73.49,28.67Q2324,220.59,2324,263.68t-28.82,71.76q-28.83,28.67-73.49,28.67t-73.48-28.67q-28.82-28.67-28.82-71.76t28.82-71.56Zm27.61,121.2q19.48,18.46,45.87,18.47t45.68-18.66q19.27-18.66,19.28-49.45t-19.28-49.44q-19.29-18.66-45.68-18.66T2176,214.24q-19.28,18.66-19.28,49.44t19.08,49.64Zm260.75,50.79q-38.57,0-66.58-28.86t-28-71.57q0-42.7,28-71.56t66.58-28.86q22.72,0,40.8,9.24t27,23.08H2506l-1.62-26.16v-87h37.35V358H2506V331.79h-1.62q-8.94,13.84-27,23.08T2436.57,364.11Zm6.09-32.32q26.39,0,44.86-18.47T2506,263.68q0-31.16-18.47-49.63t-44.86-18.47q-26,0-44.66,18.66t-18.67,49.44q0,30.78,18.67,49.45t44.66,18.66Zm228.67,32.32q-44.65,0-73.48-28.67T2569,263.68q0-43.08,28.82-71.75t73.48-28.67q33.3,0,55.22,15.39a91.11,91.11,0,0,1,32.07,38.86L2724.52,231q-15.43-35.4-55.62-35.4-24.77,0-43.64,19.24t-18.88,48.86q0,29.64,18.88,48.87t43.64,19.24q41.82,0,57.65-35.4l33.29,13.47q-10.15,23.08-32.68,38.66t-55.83,15.59Zm177.12,0q-31.66,0-53-17.32T2774.16,301q0-30.78,25.17-48.29t62.11-17.51q32.89,0,54,11.55v-5.39q0-20.77-15-33.28t-37-12.51a59.75,59.75,0,0,0-29.43,7.31q-13.2,7.32-18.06,20l-34.11-13.85q6.9-16.94,27.2-31.36t53.59-14.43q38.16,0,63.33,21.16t25.17,59.64V358h-35.72V331.79h-1.62q-22.34,32.31-65.37,32.32Zm6.09-32.32q23.14,0,42-16.36t18.88-38.66q-15.84-12.31-47.5-12.32-27.2,0-41,11.16t-13.81,26.17q0,13.85,12.59,21.93a52.24,52.24,0,0,0,28.82,8.08Zm205.95,32.32q-33.3,0-55-15.39t-31.87-38.48l33.29-13.08q15.82,35.4,54,35.4,17.46,0,28.62-7.31T3100.68,306q0-18.47-27.2-25l-40.2-9.24a97.68,97.68,0,0,1-36.13-17.5q-17-12.9-17.05-34.82,0-25,23.35-40.59t55.41-15.59q26.38,0,47.09,11.35a65.11,65.11,0,0,1,29.64,32.51l-32.48,12.7q-11-25-45.47-25-16.63,0-28,6.54t-11.37,17.7q0,16.17,26.39,21.93l39.38,8.85q28,6.16,41.41,21.16t13.4,33.86q0,25.39-21.92,42.33t-56.43,16.93Zm190.1-3.08q-31.26,0-47.7-15.78t-16.44-44.63V201.74h-34.91V169.42h34.91V111.7h37.35v57.72h48.72v32.32H3223.8v96.19q0,30.78,26.79,30.78,10.15,0,17.06-3.08l13,30.4Q3268.46,361,3250.59,361Zm130.84,3.08q-33.29,0-55-15.39t-31.87-38.48l33.29-13.08q15.84,35.4,54,35.4,17.46,0,28.62-7.31T3421.62,306q0-18.47-27.2-25l-40.19-9.24a97.68,97.68,0,0,1-36.13-17.5q-17.05-12.9-17-34.82,0-25,23.34-40.59t55.42-15.59q26.39,0,47.09,11.35a65.2,65.2,0,0,1,29.64,32.51l-32.48,12.7q-11-25-45.47-25-16.65,0-28,6.54t-11.37,17.7q0,16.17,26.39,21.93l39.38,8.85q28,6.16,41.41,21.16t13.39,33.86q0,25.39-21.92,42.33t-56.43,16.93Z"/><path id="Combined-Shape-6" class="cls-1" d="M625.53,214.35c0-82.37,69-149.11,151.43-149.11,45.46,0,77.85,17.89,102.28,41.18l-29,28.69c-17.33-16.48-40.91-29.26-73.3-29.26-60,0-106.83,48.29-106.83,108.22S717,322.28,777,322.28c38.92,0,61.08-15.62,75.29-29.82,11.65-11.65,19.32-28.41,22.16-51.13H777V200.72H914.19a135.58,135.58,0,0,1,2.27,25.56c0,30.67-8.24,68.45-35.23,95.15-26.42,27.26-60,41.75-104.27,41.75-82.39,0-151.43-66.75-151.43-148.83Zm400.31-41.18c53.13,0,96.31,40.33,96.31,96,0,55.38-43.18,96-96.31,96s-96.31-40.62-96.31-96C929.53,213.5,972.71,173.17,1025.84,173.17Zm0,153.94c29,0,54.27-23.86,54.27-58.23,0-34.65-25.29-58.22-54.27-58.22-29.26,0-54.26,23.57-54.26,58.22C971.58,303.25,996.86,327.11,1025.84,327.11Zm210.24-153.94c53.13,0,96.32,40.33,96.32,96,0,55.38-43.19,96-96.32,96s-96.31-40.62-96.31-96C1139.77,213.5,1183,173.17,1236.08,173.17Zm0,153.94c29,0,54.27-23.86,54.27-58.23,0-34.65-25-58.22-54.27-58.22s-54.26,23.57-54.26,58.22C1181.82,303.25,1207.1,327.11,1236.08,327.11Zm258-150.82h40.34v172.4c0,71-41.77,100-91.2,100-46.59,0-74.72-31.24-85.23-56.81l36.65-15.33c6.53,15.62,22.44,34.08,48.3,34.08,31.53,0,51.14-19.6,51.14-56.24V340.46h-1.43c-9.37,11.64-27.55,21.87-50.57,21.87-48,0-92-42-92-95.72,0-54.25,44-96.28,92-96.28,23,0,41.2,10.22,50.57,21.58h1.43Zm-48.3,148.26c28.69,0,51.42-24.14,51.14-57.94,0-33.8-22.45-58.51-51.14-58.51-29,0-53.42,24.71-53.42,58.51,0,33.51,24.44,57.94,53.42,57.94Zm117.33,34.08V76.6h42.05v282Zm157.69-31.52c21.59,0,36.36-10.51,47.44-26.42l32.68,21.87c-10.8,15.62-36.09,42.61-80.12,42.61-54.55,0-95.18-42.32-95.18-96,0-57.09,41.19-96,90.63-96,49.72,0,74.15,39.48,82.11,61.06L1802.6,245l-128.42,53.12c10,19,25,29,46.6,29Zm-3.13-117c-21.59,0-51.42,19-50.29,56l85.8-35.5C1748.62,218.33,1734.41,210.09,1717.65,210.09Z"/></g></g></svg>